<?xml version="1.0" standalone="no"?>
<!DOCTYPE svg PUBLIC "-//W3C//DTD SVG 20010904//EN"
 "http://www.w3.org/TR/2001/REC-SVG-20010904/DTD/svg10.dtd">
<svg version="1.0" xmlns="http://www.w3.org/2000/svg"
 width="1279.000000pt" height="1280.000000pt" viewBox="0 0 1279.000000 1280.000000"
 preserveAspectRatio="xMidYMid meet">

<g transform="translate(0.000000,1280.000000) scale(0.100000,-0.100000)"
fill="#000000" stroke="none">
<path d="M12768 12783 c9 -4 12 -1290 12 -6383 0 -5093 -3 -6379 -12 -6383 -8
-3 -6 -6 5 -6 16 -1 17 310 17 6389 0 6079 -1 6390 -17 6389 -11 0 -13 -3 -5
-6z"/>
<path d="M5 6400 c0 -3506 1 -4941 2 -3187 2 1753 2 4621 0 6375 -1 1753 -2
318 -2 -3188z"/>
<path d="M6294 9652 c-213 -144 -350 -260 -540 -454 -78 -79 -158 -168 -179
-196 -20 -29 -40 -52 -44 -52 -4 0 -54 15 -111 34 -186 61 -429 111 -698 145
-230 29 -204 37 -240 -74 -93 -285 -139 -558 -149 -866 l-6 -207 -141 -7
c-238 -11 -580 -46 -595 -60 -7 -8 19 -114 55 -221 160 -481 519 -896 974
-1124 95 -48 278 -120 302 -120 7 0 35 55 62 122 124 311 308 650 470 868 39
52 74 99 78 104 4 6 32 -7 65 -29 330 -218 590 -548 758 -963 l41 -103 29 73
c101 258 263 526 423 699 131 142 391 346 410 323 177 -206 441 -677 563
-1003 19 -50 40 -91 47 -91 7 0 57 16 110 36 568 213 1010 685 1187 1270 45
147 45 160 3 168 -109 20 -534 56 -665 56 l-43 0 0 143 c0 315 -48 610 -151
935 -22 69 -34 92 -47 92 -37 0 -283 -31 -397 -51 -182 -30 -376 -75 -493
-114 -57 -19 -108 -35 -112 -35 -5 0 -24 21 -42 48 -98 134 -317 349 -519 509
-68 53 -241 174 -295 206 -6 3 -56 -24 -110 -61z m121 -102 c3 -6 -1 -7 -9 -4
-18 7 -21 14 -7 14 6 0 13 -4 16 -10z m-1565 -586 c132 -20 279 -49 452 -91
l147 -34 -68 -102 c-155 -232 -271 -467 -378 -767 -11 -30 -24 -54 -29 -53
-127 21 -274 43 -329 47 -38 4 -91 9 -117 12 l-48 6 0 150 c0 224 35 477 101
728 17 63 33 118 36 123 6 9 91 3 233 -19z m3325 16 c19 -31 86 -323 110 -475
16 -104 42 -511 34 -519 -3 -3 -59 -10 -125 -16 -65 -6 -173 -20 -239 -32 -66
-11 -126 -21 -134 -22 -8 0 -25 33 -45 94 -80 233 -243 559 -369 734 -27 38
-50 76 -51 84 -2 23 388 110 659 146 127 18 152 18 160 6z m-2503 -219 c155
-61 558 -260 592 -291 4 -5 -18 -25 -50 -45 -169 -108 -415 -338 -609 -568
-109 -130 -94 -124 -199 -78 -34 15 -113 44 -177 66 l-117 39 25 71 c51 140
161 378 227 490 82 139 220 345 231 345 3 0 37 -13 77 -29z m1578 -38 c27 -38
48 -74 45 -81 -3 -7 0 -10 5 -7 25 15 217 -338 314 -578 72 -178 73 -182 50
-173 -10 4 -15 4 -11 0 4 -5 -48 -26 -115 -49 -68 -23 -151 -54 -186 -70 -36
-16 -66 -24 -71 -19 -4 5 -50 59 -101 119 -203 238 -427 449 -583 548 -43 28
-74 54 -69 59 28 28 632 317 665 318 4 0 30 -30 57 -67z m-766 -390 c202 -141
428 -354 603 -570 l83 -101 -78 -55 c-293 -205 -498 -442 -657 -757 l-37 -73
-25 44 c-14 24 -36 66 -50 93 -14 27 -63 106 -109 176 -127 194 -320 387 -516
518 -38 25 -68 49 -68 54 0 5 37 55 82 111 104 128 336 362 448 451 82 65 226
166 237 166 3 0 42 -25 87 -57z m-2140 -495 c2 -13 12 -81 21 -152 35 -268
145 -659 260 -930 l16 -39 -58 33 c-293 164 -542 434 -706 766 -69 140 -121
270 -114 288 6 14 133 31 347 45 216 15 229 14 234 -11z m4510 -4 c87 -8 164
-18 171 -22 11 -5 4 -31 -30 -118 -135 -346 -341 -625 -610 -829 -69 -51 -216
-145 -229 -145 -4 0 -2 9 4 20 51 96 176 486 224 705 22 97 66 366 66 404 0
15 125 11 404 -15z m-4194 1 c121 -14 269 -41 278 -50 3 -3 -9 -62 -26 -132
-62 -252 -89 -461 -99 -786 l-6 -208 -50 113 c-119 274 -227 663 -257 923 -6
55 -13 112 -15 128 -5 33 -3 33 175 12z m3644 -47 c-31 -301 -117 -636 -243
-952 -83 -206 -77 -209 -84 35 -9 294 -46 580 -107 821 -11 42 -20 81 -20 86
0 19 277 65 418 70 l43 2 -7 -62z m-3068 -88 c84 -32 159 -64 172 -75 2 -1
-27 -47 -64 -101 -135 -201 -311 -517 -402 -724 -27 -63 -2 316 39 560 19 117
75 365 86 383 7 12 54 0 169 -43z m2517 -57 c64 -265 97 -508 110 -801 l3 -74
-18 39 c-169 364 -270 545 -422 754 l-46 63 37 20 c47 24 272 105 294 105 12
1 22 -25 42 -106z"/>
<path d="M2906 5771 c-3 -5 -1 -22 4 -37 8 -23 -2 -94 -45 -333 -30 -168 -55
-313 -55 -323 0 -14 8 -18 34 -18 37 0 37 -2 51 120 18 163 47 389 51 410 6
24 6 24 20 -10 9 -19 45 -114 80 -210 129 -345 113 -311 153 -308 34 3 36 5
68 88 72 183 177 435 183 443 4 5 13 -29 19 -75 13 -100 51 -430 51 -447 0 -8
17 -11 53 -9 l52 3 -3 60 c-2 33 -19 188 -38 345 -18 157 -34 291 -34 298 0 9
-15 12 -52 10 -52 -3 -53 -4 -52 -33 1 -25 -193 -501 -215 -527 -3 -4 -42 86
-85 200 -43 114 -92 242 -108 285 l-30 77 -48 0 c-27 0 -51 -4 -54 -9z"/>
<path d="M4550 5769 c-109 -10 -130 -16 -130 -34 0 -10 10 -15 29 -15 17 0 33
-6 38 -12 4 -7 10 -155 13 -328 l5 -315 100 -8 c242 -19 396 46 472 201 33 66
38 87 42 159 4 116 -18 182 -84 249 -93 95 -241 127 -485 103z m295 -73 c58
-29 93 -64 128 -130 19 -35 22 -57 22 -146 0 -95 -3 -111 -28 -162 -52 -106
-141 -158 -268 -158 -97 0 -89 -28 -89 314 0 167 3 306 8 310 4 5 44 6 90 3
62 -4 96 -11 137 -31z"/>
<path d="M5943 5765 c-91 -20 -146 -48 -198 -100 -73 -72 -90 -120 -90 -245 0
-97 2 -110 31 -170 38 -79 89 -131 163 -168 51 -24 66 -27 166 -27 146 0 269
37 246 73 -7 11 -18 10 -65 -3 -82 -24 -205 -18 -268 13 -97 48 -157 164 -158
303 0 47 5 101 12 120 18 54 66 114 110 139 49 27 145 37 207 20 51 -13 111
-67 111 -99 0 -12 6 -21 15 -21 12 0 15 14 15 69 0 43 -5 72 -12 79 -14 11
-150 33 -196 31 -15 0 -55 -7 -89 -14z"/>
<path d="M8586 5771 c-4 -5 -2 -21 4 -35 7 -20 -3 -96 -45 -329 -30 -166 -57
-312 -60 -324 -5 -21 -2 -23 33 -23 l39 0 11 83 c6 45 21 169 34 275 12 105
25 192 28 192 3 0 43 -102 89 -228 47 -125 92 -247 102 -272 16 -42 19 -45 53
-45 l37 0 93 230 c116 288 125 309 131 304 2 -3 15 -106 29 -229 14 -124 28
-244 31 -267 l6 -43 49 0 c27 0 51 4 54 9 3 4 -12 158 -34 341 -22 183 -40
342 -40 352 0 17 -7 19 -52 16 l-53 -3 -3 -40 c-3 -31 -173 -445 -211 -513 -5
-8 -50 97 -116 272 l-109 286 -47 0 c-26 0 -50 -4 -53 -9z"/>
<path d="M5335 5765 c-5 -2 -27 -6 -47 -10 -47 -7 -53 -35 -8 -35 24 0 33 -6
40 -26 6 -14 10 -156 10 -330 l0 -304 44 0 c24 0 48 6 54 13 8 9 11 121 9 353
l-2 339 -45 2 c-25 1 -49 0 -55 -2z"/>
<path d="M6460 5763 c-56 -9 -70 -14 -70 -28 0 -9 9 -15 23 -15 46 0 47 -5 47
-343 l0 -318 53 3 52 3 3 171 2 171 113 6 c61 4 140 7 175 7 l62 0 0 -181 0
-180 53 3 52 3 3 344 c1 190 -1 348 -5 352 -5 4 -28 4 -53 0 l-45 -6 -3 -147
-3 -148 -174 0 -175 0 0 155 0 155 -42 -1 c-24 -1 -54 -3 -68 -6z"/>
<path d="M7930 5763 c-56 -9 -70 -14 -70 -28 0 -10 10 -15 29 -15 17 0 31 -6
35 -16 3 -9 6 -152 6 -318 0 -222 3 -305 12 -314 15 -15 360 -17 388 -2 12 7
22 30 30 67 6 32 13 68 16 81 3 16 0 22 -13 22 -11 -1 -26 -18 -40 -48 -12
-26 -33 -53 -45 -61 -31 -20 -202 -28 -223 -11 -13 11 -15 60 -15 331 l0 319
-42 -1 c-24 -1 -54 -3 -68 -6z"/>
<path d="M3890 5754 c-14 -3 -44 -7 -67 -10 -51 -6 -56 -26 -10 -39 l32 -10 5
-315 5 -315 190 -3 c105 -1 200 0 211 3 22 5 34 37 49 133 9 58 -17 57 -44 -2
-28 -64 -57 -79 -162 -84 -48 -3 -100 -2 -114 2 l-25 6 0 141 0 141 123 -3
c122 -4 122 -4 125 20 2 13 0 27 -5 31 -4 4 -61 5 -126 1 l-117 -6 0 133 0
132 108 0 c124 0 145 -9 163 -70 19 -64 39 -51 39 24 0 103 13 96 -184 95 -94
-1 -182 -3 -196 -5z"/>
<path d="M7278 5747 c-47 -6 -68 -14 -68 -23 0 -8 10 -14 23 -14 52 -1 52 4
57 -332 l5 -313 199 -3 c133 -2 203 1 212 9 7 6 18 36 24 67 6 31 13 67 16 80
8 41 -25 24 -47 -24 -33 -70 -54 -79 -184 -79 l-110 0 -3 144 -3 144 119 -7
c118 -6 120 -6 125 16 11 39 -9 45 -131 39 l-112 -6 0 133 0 132 99 0 c127 0
144 -7 166 -64 33 -87 58 -38 39 77 l-7 37 -176 -1 c-97 -1 -206 -6 -243 -12z"/>
<path d="M9575 5755 c-5 -2 -36 -6 -67 -10 -41 -4 -58 -11 -58 -21 0 -8 10
-14 23 -14 52 -1 52 4 57 -332 l5 -313 199 -3 c130 -1 203 1 211 8 12 10 26
58 39 138 8 49 -20 41 -45 -14 -33 -70 -54 -79 -184 -79 l-110 0 -3 144 -3
144 120 -6 c115 -6 119 -6 124 14 11 42 1 47 -96 42 -51 -2 -104 -5 -119 -7
l-28 -3 0 134 0 133 106 0 c58 0 114 -4 124 -10 10 -5 26 -30 35 -55 24 -61
45 -60 45 4 0 27 -3 63 -6 80 l-6 31 -177 -1 c-97 0 -180 -2 -186 -4z"/>
<path d="M3765 4661 c-45 -11 -74 -32 -98 -71 -30 -48 -31 -160 -2 -208 59
-98 217 -102 263 -6 14 31 14 36 2 44 -25 16 -57 11 -63 -9 -8 -31 -54 -56
-84 -45 -81 29 -98 190 -23 229 42 22 58 19 92 -16 25 -24 36 -29 59 -24 16 4
29 13 29 20 0 18 -47 73 -68 79 -40 11 -79 14 -107 7z"/>
<path d="M4367 4656 c-82 -30 -111 -79 -105 -182 2 -54 9 -80 24 -101 67 -90
210 -90 277 -1 39 52 39 174 0 226 -42 57 -128 82 -196 58z m92 -57 c39 -14
61 -54 61 -114 0 -60 -22 -100 -62 -114 -70 -25 -128 26 -128 113 0 60 18 96
55 112 37 16 35 16 74 3z"/>
<path d="M5595 4655 c-22 -8 -41 -15 -43 -15 -2 0 -10 -16 -18 -35 -12 -30
-12 -39 0 -69 16 -38 44 -56 127 -80 59 -17 76 -35 59 -66 -23 -42 -110 -32
-132 16 -10 22 -17 25 -42 20 -16 -4 -31 -8 -33 -10 -3 -2 5 -22 16 -44 24
-48 66 -67 138 -66 91 3 146 62 124 134 -14 49 -27 58 -113 84 -80 25 -105 48
-74 72 35 25 106 11 106 -21 0 -11 11 -15 39 -15 35 0 38 2 34 24 -7 34 -44
66 -90 77 -49 11 -50 11 -98 -6z"/>
<path d="M8953 4661 c-122 -30 -170 -183 -91 -294 45 -63 154 -80 241 -38 l47
23 0 74 0 74 -75 0 -75 0 0 -30 c0 -28 2 -30 40 -30 36 0 40 -2 40 -26 0 -37
-59 -60 -112 -45 -46 14 -68 51 -68 115 0 66 15 95 56 112 44 18 75 12 106
-20 42 -45 102 -12 65 35 -33 43 -111 65 -174 50z"/>
<path d="M4910 4485 l0 -175 35 0 34 0 3 110 3 111 69 -111 c65 -105 70 -110
102 -110 l34 0 0 175 0 175 -30 0 -29 0 -3 -117 -3 -118 -70 117 c-69 116 -70
117 -107 118 l-38 0 0 -175z"/>
<path d="M6122 4514 l3 -146 32 -28 c60 -54 172 -47 217 13 18 25 21 45 24
168 l4 139 -36 0 -36 0 0 -117 c0 -65 -3 -128 -6 -140 -7 -26 -54 -47 -83 -38
-47 14 -51 29 -51 166 l0 129 -36 0 -35 0 3 -146z"/>
<path d="M6740 4486 l0 -176 120 0 120 0 0 30 0 30 -85 0 -84 0 -3 143 -3 142
-32 3 -33 3 0 -175z"/>
<path d="M7236 4652 c-3 -5 -4 -17 -2 -28 2 -15 12 -20 54 -22 l52 -3 0 -145
0 -144 35 0 35 0 0 145 0 145 50 0 c49 0 50 1 50 30 l0 30 -134 0 c-74 0 -137
-4 -140 -8z"/>
<path d="M7820 4485 l0 -175 35 0 35 0 0 175 0 175 -35 0 -35 0 0 -175z"/>
<path d="M8220 4484 l0 -175 33 3 32 3 2 100 c1 55 2 104 2 109 1 5 31 -40 69
-100 65 -104 69 -109 105 -112 l37 -3 0 175 0 176 -35 0 -34 0 -3 -112 -3
-112 -68 112 c-66 108 -70 112 -103 112 l-34 0 0 -176z"/>
<path d="M8 13 c7 -3 16 -2 19 1 4 3 -2 6 -13 5 -11 0 -14 -3 -6 -6z"/>
<path d="M3243 13 c1743 -2 4591 -2 6330 0 1739 1 314 2 -3168 2 -3481 0
-4904 -1 -3162 -2z"/>
</g>
</svg>